<?xml version="1.0" encoding="utf-8"?>
<!-- Generator: Adobe Illustrator 27.8.0, SVG Export Plug-In . SVG Version: 6.00 Build 0)  -->
<svg version="1.1" xmlns="http://www.w3.org/2000/svg" xmlns:xlink="http://www.w3.org/1999/xlink" x="0px" y="0px"
	 viewBox="0 0 400 400" style="enable-background:new 0 0 400 400;" xml:space="preserve">
<style type="text/css">
	.st0{display:none;}
	.st1{fill:none;stroke:#000000;stroke-miterlimit:10;}
	.st2{display:inline;}
	.st3{display:none;fill:none;stroke:#000000;stroke-miterlimit:10;}
	.st4{fill:#C4C4C5;stroke:#C4C4C5;stroke-miterlimit:10;}
</style>
<g id="Layer_1" class="st0">
	
		<rect x="92.78" y="109" transform="matrix(0.7071 -0.7071 0.7071 0.7071 -32.1452 193.728)" class="st1" width="250" height="53.33"/>
	
		<rect x="92.78" y="109" transform="matrix(-0.7071 -0.7071 0.7071 -0.7071 275.8392 385.5896)" class="st1" width="250" height="53.33"/>
	<g class="st2">
		<path class="st1" d="M259.1,139.28l62.31,62.31c1.99,1.99,1.99,5.23,0,7.22l-30.49,30.49c-1.99,1.99-5.23,1.99-7.22,0
			L183.68,139.28c-1.99-1.99-1.99-5.23,0-7.22l34.1-34.11l65.92-65.92c1.99-1.99,5.23-1.99,7.22,0l30.49,30.49
			c1.99,1.99,1.99,5.23,0,7.22l-62.31,62.32C257.11,134.05,257.11,137.29,259.1,139.28z"/>
	</g>
</g>
<g id="Layer_2">
	<polygon class="st3" points="238.12,200 344.85,306.73 306.73,344.85 161.88,200 200,161.88 306.73,55.15 344.85,93.27 	"/>
	<path class="st4" d="M267.36,209.98L156.62,320.73c-5.51,5.51-14.45,5.51-19.96,0l-4.01-4.01c-5.51-5.51-5.51-14.45,0-19.96
		l86.77-86.77c5.51-5.51,5.51-14.45,0-19.96l-86.76-86.77c-5.51-5.51-5.51-14.45,0-19.96l4.01-4.01c5.51-5.51,14.45-5.51,19.96,0
		l110.74,110.74C272.87,195.53,272.87,204.47,267.36,209.98z"/>
</g>
</svg>
